<svg width="2058" height="322" viewBox="0 0 2058 322" fill="none" xmlns="http://www.w3.org/2000/svg">
<rect width="322" height="322" rx="31.9603" fill="#131313"/>
<path d="M108.814 48.3018V214.615H153.262L205.662 274.28H36.7544V103.832L108.814 48.3018Z" fill="white"/>
<path d="M198.783 55.0794C205.249 55.0794 211.511 55.9502 217.467 57.5613C214.648 63.2709 213.061 69.6979 213.061 76.4962C213.061 100.152 232.238 119.33 255.894 119.33C260.667 119.33 265.251 118.532 269.538 117.092C269.941 120.161 270.172 123.289 270.172 126.469C270.172 165.896 238.21 197.858 198.783 197.858H127.394L148.302 176.95C135.383 164.031 127.394 146.182 127.394 126.469C127.394 87.0416 159.356 55.0794 198.783 55.0794ZM170.228 133.608C170.228 149.378 183.012 162.163 198.783 162.163C214.554 162.163 227.339 149.378 227.339 133.608H170.228ZM252.534 50.2202C253.794 47.1806 257.995 47.1805 259.255 50.2202L261.06 54.5844C264.143 62.0289 269.897 67.9735 277.13 71.1908L282.247 73.4705C285.18 74.7747 285.18 79.0403 282.247 80.3445L276.83 82.7567C269.78 85.8927 264.128 91.6269 260.991 98.8262L259.227 102.863C257.938 105.819 253.85 105.819 252.562 102.863L250.798 98.8262C247.66 91.6268 242.01 85.8927 234.959 82.7567L229.535 80.3445C226.606 79.0391 226.606 74.7755 229.535 73.4705L234.659 71.1908C241.891 67.9735 247.645 62.0289 250.729 54.5844L252.534 50.2202Z" fill="#34D399"/>
<path d="M443.662 39.7686V247.57H568.275V282.232H409V39.7686H443.662Z" fill="white"/>
<path d="M609.869 39.7686H786.56V74.4304H644.531V143.754H765.763V178.416H644.531V247.57H786.56V282.232H609.869V39.7686Z" fill="white"/>
<path d="M945.835 39.7686L1039.34 282.232H1004.68L983.203 226.435H873.806L852.333 282.232H817.671L911.174 39.7686H945.835ZM886.995 191.773H969.845L928.589 84.9135L886.995 191.773Z" fill="white"/>
<path d="M1204.19 247.57C1220.31 247.57 1232.71 243.231 1241.39 234.551C1250.07 225.872 1254.41 213.472 1254.41 197.353V124.648C1254.41 116.757 1253.28 109.712 1251.03 103.512C1248.77 97.3128 1245.45 92.0713 1241.05 87.7879C1236.77 83.3917 1231.53 80.0664 1225.33 77.812C1219.13 75.5576 1212.08 74.4304 1204.19 74.4304H1115.59V247.57H1204.19ZM1080.93 282.232V39.7686H1204.19C1217.16 39.7686 1228.82 41.7975 1239.19 45.8555C1249.68 49.8008 1258.58 55.4932 1265.91 62.9328C1273.35 70.2597 1279.04 79.1647 1282.99 89.6478C1287.04 100.131 1289.07 111.798 1289.07 124.648V197.353C1289.07 210.203 1287.04 221.87 1282.99 232.353C1279.04 242.836 1273.35 251.797 1265.91 259.237C1258.58 266.564 1249.68 272.256 1239.19 276.314C1228.82 280.26 1217.16 282.232 1204.19 282.232H1080.93Z" fill="white"/>
<path d="M1417.41 282.232L1323.9 39.7686H1361.1L1436.51 239.285L1512.09 39.7686H1549.12L1455.62 282.232H1417.41Z" fill="white"/>
<path d="M1798.35 247.57C1798.35 252.305 1797.45 256.814 1795.64 261.097C1793.84 265.268 1791.36 268.931 1788.2 272.087C1785.05 275.243 1781.33 277.723 1777.04 279.527C1772.87 281.33 1768.42 282.232 1763.69 282.232H1625.21C1620.47 282.232 1615.96 281.33 1611.68 279.527C1607.51 277.723 1603.85 275.243 1600.69 272.087C1597.53 268.931 1595.05 265.268 1593.25 261.097C1591.45 256.814 1590.55 252.305 1590.55 247.57V74.4304C1590.55 69.6961 1591.45 65.2436 1593.25 61.0729C1595.05 56.7895 1597.53 53.126 1600.69 50.0826C1603.85 46.9264 1607.51 44.4465 1611.68 42.6429C1615.96 40.7267 1620.47 39.7686 1625.21 39.7686H1763.69C1768.42 39.7686 1772.87 40.7267 1777.04 42.6429C1781.33 44.4465 1785.05 46.9264 1788.2 50.0826C1791.36 53.126 1793.84 56.7895 1795.64 61.0729C1797.45 65.2436 1798.35 69.6961 1798.35 74.4304V247.57ZM1625.21 74.4304V247.57H1763.69V74.4304H1625.21Z" fill="white"/>
<path d="M1883.56 39.7686L1948.32 130.566L2013.42 39.7686H2055.35L1969.46 159.986L2057.21 282.232H2015.28L1948.32 189.068L1881.87 282.232H1839.94L1927.69 159.986L1841.8 39.7686H1883.56Z" fill="white"/>
</svg>
